<?xml version="1.0" encoding="UTF-8"?>
<svg xmlns="http://www.w3.org/2000/svg" xmlns:xlink="http://www.w3.org/1999/xlink" width="200px" height="200px" viewBox="0 0 200 200" version="1.1">
<g id="surface1">
<path style=" stroke:none;fill-rule:nonzero;fill:rgb(77.647059%,79.215686%,85.490196%);fill-opacity:1;" d="M 100 0 C 44.765625 0 0 44.765625 0 100 C 0 155.234375 44.765625 200 100 200 C 155.234375 200 200 155.234375 200 100 C 200 44.765625 155.234375 0 100 0 Z M 100 50 C 115.535156 50 128.125 62.59375 128.125 78.125 C 128.125 93.65625 115.546875 106.25 100 106.25 C 84.46875 106.25 71.875 93.65625 71.875 78.125 C 71.875 62.59375 84.453125 50 100 50 Z M 100 175 C 79.324219 175 60.585938 166.589844 46.992188 153.011719 C 53.320312 136.679688 68.945312 125 87.5 125 L 112.5 125 C 131.070312 125 146.695312 136.671875 153.007812 153.011719 C 139.414062 166.601562 120.664062 175 100 175 Z M 100 175 "/>
</g>
</svg>
