<svg version="1.1" xmlns="http://www.w3.org/2000/svg" xmlns:xlink="http://www.w3.org/1999/xlink" width="24" height="24" viewBox="0,0,256,256"><g fill="#4cbfa4" fill-rule="nonzero" stroke="none" stroke-width="1" stroke-linecap="butt" stroke-linejoin="miter" stroke-miterlimit="10" stroke-dasharray="" stroke-dashoffset="0" font-family="none" font-weight="none" font-size="none" text-anchor="none" style="mix-blend-mode: normal"><g transform="scale(10.66667,10.66667)"><path d="M10.6,13.8l-2.15,-2.15c-0.18333,-0.1833 -0.41667,-0.275 -0.7,-0.275c-0.28333,0 -0.51667,0.0917 -0.7,0.275c-0.18333,0.1833 -0.275,0.4167 -0.275,0.7c0,0.2833 0.09167,0.5167 0.275,0.7l2.85,2.85c0.2,0.2 0.4333,0.3 0.7,0.3c0.2667,0 0.5,-0.1 0.7,-0.3l5.65,-5.65c0.1833,-0.1833 0.275,-0.41667 0.275,-0.7c0,-0.28333 -0.0917,-0.51667 -0.275,-0.7c-0.1833,-0.18333 -0.4167,-0.275 -0.7,-0.275c-0.2833,0 -0.5167,0.09167 -0.7,0.275zM12,22c-1.3833,0 -2.68333,-0.2625 -3.9,-0.7875c-1.21667,-0.525 -2.275,-1.2375 -3.175,-2.1375c-0.9,-0.9 -1.6125,-1.9583 -2.1375,-3.175c-0.525,-1.2167 -0.7875,-2.5167 -0.7875,-3.9c0,-1.3833 0.2625,-2.68333 0.7875,-3.9c0.525,-1.21667 1.2375,-2.275 2.1375,-3.175c0.9,-0.9 1.95833,-1.6125 3.175,-2.1375c1.21667,-0.525 2.5167,-0.7875 3.9,-0.7875c1.3833,0 2.6833,0.2625 3.9,0.7875c1.2167,0.525 2.275,1.2375 3.175,2.1375c0.9,0.9 1.6125,1.95833 2.1375,3.175c0.525,1.21667 0.7875,2.5167 0.7875,3.9c0,1.3833 -0.2625,2.6833 -0.7875,3.9c-0.525,1.2167 -1.2375,2.275 -2.1375,3.175c-0.9,0.9 -1.9583,1.6125 -3.175,2.1375c-1.2167,0.525 -2.5167,0.7875 -3.9,0.7875z"></path></g></g></svg>