<svg version="1.1" xmlns="http://www.w3.org/2000/svg" xmlns:xlink="http://www.w3.org/1999/xlink" width="24" height="24" viewBox="0,0,256,256"><g fill="#4cbfa4" fill-rule="nonzero" stroke="none" stroke-width="1" stroke-linecap="butt" stroke-linejoin="miter" stroke-miterlimit="10" stroke-dasharray="" stroke-dashoffset="0" font-family="none" font-weight="none" font-size="none" text-anchor="none" style="mix-blend-mode: normal"><g transform="translate(-0.00933,0.00555) scale(10.66667,10.66667)"><path d="M11.7017,18.7169c-0.8879,0.8879 -1.95756,1.3319 -3.20905,1.332c-1.2515,0.0001 -2.32113,-0.4438 -3.20889,-1.3315c-0.88776,-0.8878 -1.33173,-1.9576 -1.33191,-3.2093c-0.00017,-1.2518 0.44367,-2.3216 1.33154,-3.2095l2.13491,-2.1349c0.15026,-0.1502 0.32706,-0.22533 0.53038,-0.22527c0.20333,0.00003 0.38016,0.07517 0.53049,0.22557c0.15032,0.1503 0.22542,0.327 0.22531,0.5302c-0.00011,0.2032 -0.07529,0.3799 -0.22555,0.5302l-2.13573,2.1357c-0.59325,0.5932 -0.88988,1.3091 -0.88988,2.1477c0,0.8386 0.2969,1.5547 0.89069,2.1485c0.5938,0.5938 1.30997,0.8907 2.14853,0.8907c0.83856,0 1.55446,-0.2966 2.14776,-0.8899l2.1357,-2.1357c0.1502,-0.1503 0.327,-0.2254 0.5303,-0.2253c0.2034,0 0.3802,0.0752 0.5305,0.2255c0.1504,0.1504 0.2255,0.3271 0.2254,0.5303c-0.0002,0.2032 -0.0753,0.3799 -0.2256,0.5301zM10.4099,14.6511c-0.1503,0.1503 -0.3271,0.2254 -0.53041,0.2253c-0.20334,0 -0.38017,-0.0752 -0.53049,-0.2255c-0.15033,-0.1504 -0.22543,-0.3271 -0.22531,-0.5303c0.0001,-0.2032 0.07528,-0.3799 0.22554,-0.5301l4.24267,-4.24267c0.1502,-0.15026 0.327,-0.22537 0.5304,-0.22533c0.2033,0.00005 0.3801,0.07524 0.5304,0.22556c0.1504,0.15033 0.2255,0.32708 0.2254,0.53024c-0.0002,0.2032 -0.0753,0.3799 -0.2256,0.5302zM16.5834,13.8352c-0.1502,0.1503 -0.327,0.2254 -0.5304,0.2253c-0.2033,0 -0.3801,-0.0752 -0.5304,-0.2255c-0.1504,-0.1504 -0.2255,-0.3271 -0.2253,-0.5303c0.0001,-0.2031 0.0752,-0.3799 0.2255,-0.5301l2.1357,-2.1357c0.5933,-0.5933 0.8899,-1.3092 0.8899,-2.14776c0,-0.83856 -0.2969,-1.55474 -0.8907,-2.14853c-0.5938,-0.59379 -1.3099,-0.89069 -2.1485,-0.89069c-0.8386,0 -1.5545,0.29663 -2.1477,0.88988l-2.1357,2.13573c-0.1503,0.15026 -0.3271,0.22536 -0.5304,0.22532c-0.2034,-0.00005 -0.3802,-0.07523 -0.5305,-0.22555c-0.1503,-0.15033 -0.22544,-0.32709 -0.22532,-0.53026c0.00011,-0.20317 0.07532,-0.37988 0.22552,-0.53014l2.1349,-2.13491c0.8879,-0.88787 1.9576,-1.33184 3.2091,-1.33193c1.2515,-0.00008 2.3211,0.44376 3.2089,1.33152c0.8877,0.88776 1.3317,1.95752 1.3319,3.20928c0.0002,1.25175 -0.4437,2.32154 -1.3316,3.20944z"></path></g></g></svg>